<?xml version="1.0" encoding="UTF-8" standalone="no"?>
<!-- Generator: Adobe Illustrator 16.0.0, SVG Export Plug-In . SVG Version: 6.00 Build 0)  -->

<svg
   xmlns:dc="http://purl.org/dc/elements/1.1/"
   xmlns:cc="http://creativecommons.org/ns#"
   xmlns:rdf="http://www.w3.org/1999/02/22-rdf-syntax-ns#"
   xmlns:svg="http://www.w3.org/2000/svg"
   xmlns="http://www.w3.org/2000/svg"
   xmlns:sodipodi="http://sodipodi.sourceforge.net/DTD/sodipodi-0.dtd"
   xmlns:inkscape="http://www.inkscape.org/namespaces/inkscape"
   id="Ebene_1"
   gorn="0"
   width="1.00786in"
   version="1.1"
   x="0px"
   height="1.34646in"
   viewBox="0 0 72.566 96.945"
   enable-background="new 0 0 72.566 96.945"
   xml:space="preserve"
   y="0px"
   sodipodi:docname="d1mini_cc46e00845f707a99092c77e3cdee3e8_1_pcb.svg"
   inkscape:version="0.92.2 (5c3e80d, 2017-08-06)"><metadata
     id="metadata58"><rdf:RDF><cc:Work
         rdf:about=""><dc:format>image/svg+xml</dc:format><dc:type
           rdf:resource="http://purl.org/dc/dcmitype/StillImage" /></cc:Work></rdf:RDF></metadata><defs
     id="defs56" /><sodipodi:namedview
     pagecolor="#ffffff"
     bordercolor="#666666"
     borderopacity="1"
     objecttolerance="10"
     gridtolerance="10"
     guidetolerance="10"
     inkscape:pageopacity="0"
     inkscape:pageshadow="2"
     inkscape:window-width="1366"
     inkscape:window-height="713"
     id="namedview54"
     showgrid="false"
     inkscape:zoom="5.1640723"
     inkscape:cx="48.377277"
     inkscape:cy="126.59668"
     inkscape:window-x="0"
     inkscape:window-y="27"
     inkscape:window-maximized="1"
     inkscape:current-layer="silkscreen" /><desc
     id="desc2"><referenceFile>New-D1-mini_pcb_fix.svg</referenceFile></desc><g
     id="silkscreen"
     gorn="0.0"><polygon
       points="56.907,15.289 55.688,15.289 55.688,3.269 50.568,3.269 50.568,10.969 42.224,10.969 42.224,3.269 36.963,3.269 36.963,10.969 28.684,10.969 28.684,3.269 23.568,3.269 23.568,15.286 22.348,15.286 22.348,3.269 17.304,3.269 17.304,15.289 15.656,15.289 15.656,2.049 29.904,2.049 29.904,9.749 35.743,9.749 35.743,2.049 43.444,2.049 43.444,9.749 49.348,9.749 49.348,2.049 56.907,2.049 "
       id="polygon6" /><path
       id="board-outline"
       gorn="0.0.4"
       d="M59.79,0.576c6.728,0,12.201,5.481,12.201,12.217v82.153c0,0.785-0.638,1.423-1.421,1.423l-23.032,0.003c-0.016-0.006-0.039-0.027-0.046-0.027c-0.001,0-0.002,0-0.002,0.001v-2.3c0-0.746-0.676-1.376-1.475-1.376H22.759c-0.676,0-1.375,0.516-1.375,1.376l0.003,2.274c-0.006,0.017-0.035,0.045-0.026,0.049H7.786c-0.758,0-1.446-0.632-1.622-1.477V77.757c0-0.436-0.237-0.824-0.634-1.022l-4.955-2.276V12.793c0-6.735,5.473-12.217,12.2-12.217H59.79 M59.79,0H12.776C5.789,0-0.001,5.697-0.001,12.793v61.665c0,0.2,0.1,0.4,0.299,0.5l4.991,2.299c0.2,0.101,0.299,0.301,0.299,0.5v17.19c0.201,1.099,1.1,1.998,2.198,1.998h13.574c0.3,0,0.6-0.3,0.6-0.6v-2.3c0-0.5,0.398-0.8,0.799-0.8h23.257c0.499,0,0.898,0.4,0.898,0.8v2.3c0,0.3,0.299,0.6,0.599,0.6h23.058c1.099,0,1.996-0.899,1.996-1.999V12.793C72.567,5.697,66.877,0,59.79,0L59.79,0z" /><path
       stroke="#000000"
       id="RST"
       fill="none"
       gorn="0.0.5"
       stroke-linecap="round"
       d="M11.713,23.603h-2.26 M9.453,23.603v-1.099 M9.453,22.505l0.387-0.387 M9.84,22.118h0.775 M10.615,22.118l0.323,0.387 M10.939,22.505v1.099 M10.939,22.893l0.774-0.775 M9.84,19.857l-0.387,0.388 M9.453,20.245v0.71 M9.453,20.955l0.387,0.388 M9.84,21.343h0.389 M10.229,21.343l0.387-0.388 M10.615,20.955v-0.71 M10.615,20.245l0.323-0.388 M10.939,19.857h0.388 M11.326,19.857l0.387,0.388 M11.713,20.245v0.71 M11.713,20.955l-0.387,0.388 M11.713,18.307h-2.26 M9.453,19.082v-1.484"
       stroke-width="0.4" /><path
       stroke="#000000"
       id="A0"
       fill="none"
       gorn="0.0.6"
       stroke-linecap="round"
       d="M11.682,29.673h-1.486 M10.196,29.673l-0.71-0.71 M9.486,28.963l0.71-0.774 M10.196,28.188h1.486 M10.583,29.673v-1.484 M11.359,27.412h-1.55 M9.809,27.412l-0.323-0.387 M9.486,27.025v-0.71 M9.486,26.315l0.323-0.388 M9.809,25.927h1.55 M11.359,25.927l0.323,0.388 M11.682,26.315v0.71 M11.682,27.025l-0.323,0.387 M11.359,27.412l-1.55-1.484"
       stroke-width="0.4" /><path
       stroke="#000000"
       id="D0"
       fill="none"
       gorn="0.0.7"
       stroke-linecap="round"
       d="M9.453,36.873h2.26 M11.713,36.873v-1.098 M11.713,35.775l-0.387-0.387 M11.326,35.388H9.84 M9.84,35.388l-0.387,0.387 M9.453,35.775v1.098 M11.326,34.613H9.84 M9.84,34.613l-0.387-0.388 M9.453,34.225v-0.71 M9.453,33.515l0.387-0.389 M9.84,33.127h1.486 M11.326,33.127l0.387,0.389 M11.713,33.515v0.71 M11.713,34.225l-0.387,0.388 M11.326,34.613L9.84,33.127"
       stroke-width="0.4" /><path
       stroke="#000000"
       id="D5"
       fill="none"
       gorn="0.0.8"
       stroke-linecap="round"
       d="M9.453,44.073h2.26 M11.713,44.073v-1.098 M11.713,42.975l-0.387-0.389 M11.326,42.587H9.84 M9.84,42.587l-0.387,0.389 M9.453,42.975v1.098 M9.453,40.327v1.485 M9.453,41.812h1.099 M10.552,41.812l-0.389-0.775 M10.163,41.037v-0.322 M10.163,40.715l0.389-0.388 M10.552,40.327h0.774 M11.326,40.327l0.387,0.388 M11.713,40.715v0.71 M11.713,41.425l-0.387,0.388"
       stroke-width="0.4" /><path
       stroke="#000000"
       id="D6"
       fill="none"
       gorn="0.0.9"
       stroke-linecap="round"
       d="M9.453,51.273h2.26 M11.713,51.273v-1.099 M11.713,50.175l-0.387-0.387 M11.326,49.788H9.84 M9.84,49.788l-0.387,0.387 M9.453,50.175v1.099 M9.453,47.527l0.387,0.71 M9.84,48.237l0.775,0.775 M10.615,49.012h0.711 M11.326,49.012l0.387-0.388 M11.713,48.625v-0.71 M11.713,47.915l-0.387-0.388 M11.326,47.527h-0.388 M10.939,47.527l-0.323,0.388 M10.615,47.915v1.098"
       stroke-width="0.4" /><path
       stroke="#000000"
       id="D7"
       fill="none"
       gorn="0.0.10"
       stroke-linecap="round"
       d="M9.453,58.473h2.26 M11.713,58.473v-1.099 M11.713,57.375l-0.387-0.387 M11.326,56.988H9.84 M9.84,56.988l-0.387,0.387 M9.453,57.375v1.099 M9.453,56.212v-1.484 M9.453,54.727H9.84 M9.84,54.727l1.486,1.484 M11.326,56.212h0.387"
       stroke-width="0.4" /><path
       stroke="#000000"
       id="D8"
       fill="none"
       gorn="0.0.11"
       stroke-linecap="round"
       d="M9.453,65.673h2.26 M11.713,65.673v-1.098 M11.713,64.575l-0.387-0.387 M11.326,64.188H9.84 M9.84,64.188l-0.387,0.387 M9.453,64.575v1.098 M9.84,63.412l-0.387-0.387 M9.453,63.025v-0.71 M9.453,62.315l0.387-0.388 M9.84,61.927h0.389 M10.229,61.927l0.387,0.388 M10.615,62.315l0.388-0.388 M11.003,61.927h0.323 M11.326,61.927l0.387,0.388 M11.713,62.315v0.71 M11.713,63.025l-0.387,0.387 M11.326,63.412h-0.323 M11.003,63.412l-0.388-0.387 M10.615,63.025l-0.387,0.387 M10.229,63.412H9.84 M10.615,63.025v-0.71"
       stroke-width="0.4" /><path
       stroke="#000000"
       id="_x33_V3"
       fill="none"
       gorn="0.0.12"
       stroke-linecap="round"
       d="M9.84,74.003l-0.387-0.387 M9.453,73.616v-0.711 M9.453,72.905l0.387-0.387 M9.84,72.518h0.323 M10.163,72.518l0.389,0.387 M10.552,72.905v0.388 M10.552,72.905l0.387-0.387 M10.939,72.518h0.388 M11.326,72.518l0.387,0.387 M11.713,72.905v0.711 M11.713,73.616l-0.387,0.387 M9.453,71.743h1.485 M10.939,71.743l0.774-0.775 M11.713,70.968l-0.774-0.711 M10.939,70.257H9.453 M9.84,69.482l-0.387-0.387 M9.453,69.095V68.32 M9.453,68.32l0.387-0.323 M9.84,67.997h0.323 M10.163,67.997l0.389,0.323 M10.552,68.32v0.387 M10.552,68.32l0.387-0.323 M10.939,67.997h0.388 M11.326,67.997l0.387,0.323 M11.713,68.32v0.775 M11.713,69.095l-0.387,0.387"
       stroke-width="0.4" /><path
       stroke="#000000"
       id="_x35_V"
       fill="none"
       gorn="0.0.13"
       stroke-linecap="round"
       d="M60.854,71.388v1.484 M60.854,72.873h1.098 M61.951,72.873l-0.388-0.71 M61.564,72.163v-0.388 M61.564,71.775l0.388-0.387 M61.951,71.388h0.775 M62.727,71.388l0.387,0.387 M63.114,71.775v0.71 M63.114,72.485l-0.387,0.388 M60.854,70.612h1.484 M62.338,70.612l0.775-0.775 M63.114,69.837l-0.775-0.71 M62.338,69.127h-1.484"
       stroke-width="0.4" /><path
       stroke="#000000"
       id="G"
       fill="none"
       gorn="0.0.14"
       stroke-linecap="round"
       d="M61.24,63.057l-0.387,0.388 M60.854,63.445v0.71 M60.854,64.155l0.387,0.388 M61.24,64.543h1.486 M62.727,64.543l0.387-0.388 M63.114,64.155v-0.71 M63.114,63.445l-0.387-0.388 M62.727,63.057h-0.775 M61.951,63.057v0.774"
       stroke-width="0.4" /><path
       stroke="#000000"
       id="D4"
       fill="none"
       gorn="0.0.15"
       stroke-linecap="round"
       d="M60.854,58.473h2.26 M63.114,58.473v-1.099 M63.114,57.375l-0.387-0.387 M62.727,56.988H61.24 M61.24,56.988l-0.387,0.387 M60.854,57.375v1.099 M63.114,55.115h-2.26 M60.854,55.115l1.162,1.097 M62.016,56.212v-1.484"
       stroke-width="0.4" /><path
       stroke="#000000"
       id="D3"
       fill="none"
       gorn="0.0.16"
       stroke-linecap="round"
       d="M60.854,51.273h2.26 M63.114,51.273v-1.099 M63.114,50.175l-0.387-0.387 M62.727,49.788H61.24 M61.24,49.788l-0.387,0.387 M60.854,50.175v1.099 M61.24,49.012l-0.387-0.388 M60.854,48.625v-0.71 M60.854,47.915l0.387-0.388 M61.24,47.527h0.323 M61.564,47.527l0.388,0.388 M61.951,47.915v0.322 M61.951,47.915l0.387-0.388 M62.338,47.527h0.389 M62.727,47.527l0.387,0.388 M63.114,47.915v0.71 M63.114,48.625l-0.387,0.388"
       stroke-width="0.4" /><path
       stroke="#000000"
       id="D2"
       fill="none"
       gorn="0.0.17"
       stroke-linecap="round"
       d="M60.854,44.073h2.26 M63.114,44.073v-1.098 M63.114,42.975l-0.387-0.389 M62.727,42.587H61.24 M61.24,42.587l-0.387,0.389 M60.854,42.975v1.098 M63.114,40.327v1.485 M63.114,41.812l-1.485-1.485 M61.628,40.327H61.24 M61.24,40.327l-0.387,0.388 M60.854,40.715v0.71 M60.854,41.425l0.387,0.388"
       stroke-width="0.4" /><path
       stroke="#000000"
       id="D1"
       fill="none"
       gorn="0.0.18"
       stroke-linecap="round"
       d="M60.886,36.873h2.195 M63.081,36.873v-1.098 M63.081,35.775l-0.323-0.387 M62.758,35.388h-1.55 M61.208,35.388l-0.322,0.387 M60.886,35.775v1.098 M61.596,34.613l-0.71-0.776 M60.886,33.837h2.195 M63.081,34.613v-1.486"
       stroke-width="0.4" /><path
       stroke="#000000"
       id="RX"
       fill="none"
       gorn="0.0.19"
       stroke-linecap="round"
       d="M63.114,29.673h-2.26 M60.854,29.673v-1.098 M60.854,28.575l0.387-0.387 M61.24,28.188h0.775 M62.016,28.188l0.322,0.387 M62.338,28.575v1.098 M62.338,28.963l0.775-0.774 M60.854,27.412l2.26-1.484 M60.854,25.927l2.26,1.484"
       stroke-width="0.4" /><path
       stroke="#000000"
       id="TX"
       fill="none"
       gorn="0.0.20"
       stroke-linecap="round"
       d="M63.081,21.763h-2.195 M60.886,22.473v-1.485 M60.886,20.212l2.195-1.484 M60.886,18.727l2.195,1.484"
       stroke-width="0.4" /></g><g
     id="copper0"
     gorn="0.1"><g
       id="copper1"
       gorn="0.1.0"><circle
         stroke="#F7BD13"
         cx="3.884"
         id="connector0pad"
         fill="none"
         r="2.05"
         gorn="0.1.0.0"
         cy="20.6"
         stroke-width="1.5" /><circle
         stroke="#F7BD13"
         cx="3.884"
         id="connector1pad"
         fill="none"
         r="2.05"
         gorn="0.1.0.1"
         cy="27.8"
         stroke-width="1.5" /><circle
         stroke="#F7BD13"
         cx="3.884"
         id="connector2pad"
         fill="none"
         r="2.05"
         gorn="0.1.0.2"
         cy="35"
         stroke-width="1.5" /><circle
         stroke="#F7BD13"
         cx="3.884"
         id="connector3pad"
         fill="none"
         r="2.05"
         gorn="0.1.0.3"
         cy="42.2"
         stroke-width="1.5" /><circle
         stroke="#F7BD13"
         cx="3.884"
         id="connector4pad"
         fill="none"
         r="2.05"
         gorn="0.1.0.4"
         cy="49.4"
         stroke-width="1.5" /><circle
         stroke="#F7BD13"
         cx="3.884"
         id="connector5pad"
         fill="none"
         r="2.05"
         gorn="0.1.0.5"
         cy="56.6"
         stroke-width="1.5" /><circle
         stroke="#F7BD13"
         cx="3.884"
         id="connector6pad"
         fill="none"
         r="2.05"
         gorn="0.1.0.6"
         cy="63.8"
         stroke-width="1.5" /><circle
         stroke="#F7BD13"
         cx="3.884"
         id="connector7pad"
         fill="none"
         r="2.05"
         gorn="0.1.0.7"
         cy="71"
         stroke-width="1.5" /><circle
         stroke="#F7BD13"
         cx="68.683"
         id="connector8pad"
         fill="none"
         r="2.05"
         gorn="0.1.0.8"
         cy="71"
         stroke-width="1.5" /><circle
         stroke="#F7BD13"
         cx="68.683"
         id="connector9pad"
         fill="none"
         r="2.05"
         gorn="0.1.0.9"
         cy="63.8"
         stroke-width="1.5" /><circle
         stroke="#F7BD13"
         cx="68.683"
         id="connector10pad"
         fill="none"
         r="2.05"
         gorn="0.1.0.10"
         cy="56.6"
         stroke-width="1.5" /><circle
         stroke="#F7BD13"
         cx="68.683"
         id="connector11pad"
         fill="none"
         r="2.05"
         gorn="0.1.0.11"
         cy="49.4"
         stroke-width="1.5" /><circle
         stroke="#F7BD13"
         cx="68.683"
         id="connector12pad"
         fill="none"
         r="2.05"
         gorn="0.1.0.12"
         cy="42.2"
         stroke-width="1.5" /><circle
         stroke="#F7BD13"
         cx="68.683"
         id="connector13pad"
         fill="none"
         r="2.05"
         gorn="0.1.0.13"
         cy="35"
         stroke-width="1.5" /><circle
         stroke="#F7BD13"
         cx="68.683"
         id="connector14pad"
         fill="none"
         r="2.05"
         gorn="0.1.0.14"
         cy="27.8"
         stroke-width="1.5" /><circle
         stroke="#F7BD13"
         cx="68.683"
         id="connector15pad"
         fill="none"
         r="2.05"
         gorn="0.1.0.15"
         cy="20.6"
         stroke-width="1.5" /></g></g></svg>